<?xml version="1.0" encoding="UTF-8" standalone="no"?>
<!DOCTYPE svg PUBLIC "-//W3C//DTD SVG 1.1//EN" "http://www.w3.org/Graphics/SVG/1.1/DTD/svg11.dtd">
<svg width="100%" height="100%" viewBox="0 0 256 256" version="1.1" xmlns="http://www.w3.org/2000/svg" xmlns:xlink="http://www.w3.org/1999/xlink" xml:space="preserve" xmlns:serif="http://www.serif.com/" style="fill-rule:evenodd;clip-rule:evenodd;stroke-linejoin:round;stroke-miterlimit:2;">
    <rect id="CaaS-Logo" x="0" y="0" width="256" height="256" style="fill:none;"/>
    <g id="CaaS-Logo1" serif:id="CaaS-Logo">
        <g transform="matrix(0.314536,4.05025e-17,3.85196e-17,-0.330728,20.5725,222.683)">
            <path d="M434.13,207.932C434.13,207.932 289.914,209.277 254.994,207.932C244.522,207.529 234.643,204.642 224.609,199.864C214.236,194.924 7.349,105.305 7.349,105.305L112.376,9.362L112.792,9.362C112.792,9.362 168.863,70.909 289.449,71.071C410.035,71.233 406.824,70.345 434.13,71.071C439.286,71.208 443.84,71.175 453.281,75.428C462.404,79.538 637.316,195.68 658.688,209.974C668.064,216.246 675.736,224.381 675.736,235.916C675.736,251.468 663.11,264.094 647.558,264.094C640.743,264.094 635.188,261.908 629.114,258.636L500.011,190.727C500.011,190.727 508.561,125.55 438.433,124.758L302.337,124.758L302.337,151.577C302.337,151.577 440.657,151.577 438.433,151.577C436.781,151.577 442.456,151.582 442.782,151.593C457.88,152.111 469.978,164.531 469.978,179.754C469.978,195.306 457.352,207.932 441.8,207.932C439.142,207.932 435.947,208.122 434.13,207.932Z" style="fill:rgb(226,0,116);"/>
        </g>
        <g transform="matrix(1.26492,0,0,1.26492,-35.46,-100.648)">
            <path d="M88.107,108.356L170.345,108.356L170.345,149.832L88.107,149.832L88.107,108.356ZM96.353,111.991L93.961,111.991C93.301,111.991 92.765,112.527 92.765,113.187L92.765,144.472C92.765,145.132 93.301,145.668 93.961,145.668L96.353,145.668C97.013,145.668 97.549,145.132 97.549,144.472L97.549,113.187C97.549,112.527 97.013,111.991 96.353,111.991ZM106.134,113.187C106.134,112.527 105.598,111.991 104.938,111.991L102.546,111.991C101.886,111.991 101.351,112.527 101.351,113.187L101.351,144.472C101.351,145.132 101.886,145.668 102.546,145.668L104.938,145.668C105.598,145.668 106.134,145.132 106.134,144.472L106.134,113.187ZM113.523,111.991L111.132,111.991C110.472,111.991 109.936,112.527 109.936,113.187L109.936,144.472C109.936,145.132 110.472,145.668 111.132,145.668L113.523,145.668C114.184,145.668 114.719,145.132 114.719,144.472L114.719,113.187C114.719,112.527 114.184,111.991 113.523,111.991ZM123.305,113.187C123.305,112.527 122.769,111.991 122.109,111.991L119.717,111.991C119.057,111.991 118.521,112.527 118.521,113.187L118.521,144.472C118.521,145.132 119.057,145.668 119.717,145.668L122.109,145.668C122.769,145.668 123.305,145.132 123.305,144.472L123.305,113.187ZM130.694,111.991L128.302,111.991C127.642,111.991 127.107,112.527 127.107,113.187L127.107,144.472C127.107,145.132 127.642,145.668 128.302,145.668L130.694,145.668C131.354,145.668 131.89,145.132 131.89,144.472L131.89,113.187C131.89,112.527 131.354,111.991 130.694,111.991ZM140.475,113.187C140.475,112.527 139.94,111.991 139.279,111.991L136.888,111.991C136.228,111.991 135.692,112.527 135.692,113.187L135.692,144.472C135.692,145.132 136.228,145.668 136.888,145.668L139.279,145.668C139.94,145.668 140.475,145.132 140.475,144.472L140.475,113.187ZM147.865,111.991L145.473,111.991C144.813,111.991 144.277,112.527 144.277,113.187L144.277,144.472C144.277,145.132 144.813,145.668 145.473,145.668L147.865,145.668C148.525,145.668 149.061,145.132 149.061,144.472L149.061,113.187C149.061,112.527 148.525,111.991 147.865,111.991ZM157.646,113.187C157.646,112.527 157.11,111.991 156.45,111.991L154.058,111.991C153.398,111.991 152.863,112.527 152.863,113.187L152.863,144.472C152.863,145.132 153.398,145.668 154.058,145.668L156.45,145.668C157.11,145.668 157.646,145.132 157.646,144.472L157.646,113.187ZM165.036,111.991L162.644,111.991C161.984,111.991 161.448,112.527 161.448,113.187L161.448,144.472C161.448,145.132 161.984,145.668 162.644,145.668L165.036,145.668C165.696,145.668 166.231,145.132 166.231,144.472L166.231,113.187C166.231,112.527 165.696,111.991 165.036,111.991Z" style="fill:rgb(226,0,116);"/>
        </g>
        <g transform="matrix(1.26492,0,0,1.26492,-35.46,-41.5548)">
            <path d="M88.107,108.356L170.345,108.356L170.345,149.832L88.107,149.832L88.107,108.356ZM96.353,111.991L93.961,111.991C93.301,111.991 92.765,112.527 92.765,113.187L92.765,144.472C92.765,145.132 93.301,145.668 93.961,145.668L96.353,145.668C97.013,145.668 97.549,145.132 97.549,144.472L97.549,113.187C97.549,112.527 97.013,111.991 96.353,111.991ZM106.134,113.187C106.134,112.527 105.598,111.991 104.938,111.991L102.546,111.991C101.886,111.991 101.351,112.527 101.351,113.187L101.351,144.472C101.351,145.132 101.886,145.668 102.546,145.668L104.938,145.668C105.598,145.668 106.134,145.132 106.134,144.472L106.134,113.187ZM113.523,111.991L111.132,111.991C110.472,111.991 109.936,112.527 109.936,113.187L109.936,144.472C109.936,145.132 110.472,145.668 111.132,145.668L113.523,145.668C114.184,145.668 114.719,145.132 114.719,144.472L114.719,113.187C114.719,112.527 114.184,111.991 113.523,111.991ZM123.305,113.187C123.305,112.527 122.769,111.991 122.109,111.991L119.717,111.991C119.057,111.991 118.521,112.527 118.521,113.187L118.521,144.472C118.521,145.132 119.057,145.668 119.717,145.668L122.109,145.668C122.769,145.668 123.305,145.132 123.305,144.472L123.305,113.187ZM130.694,111.991L128.302,111.991C127.642,111.991 127.107,112.527 127.107,113.187L127.107,144.472C127.107,145.132 127.642,145.668 128.302,145.668L130.694,145.668C131.354,145.668 131.89,145.132 131.89,144.472L131.89,113.187C131.89,112.527 131.354,111.991 130.694,111.991ZM140.475,113.187C140.475,112.527 139.94,111.991 139.279,111.991L136.888,111.991C136.228,111.991 135.692,112.527 135.692,113.187L135.692,144.472C135.692,145.132 136.228,145.668 136.888,145.668L139.279,145.668C139.94,145.668 140.475,145.132 140.475,144.472L140.475,113.187ZM147.865,111.991L145.473,111.991C144.813,111.991 144.277,112.527 144.277,113.187L144.277,144.472C144.277,145.132 144.813,145.668 145.473,145.668L147.865,145.668C148.525,145.668 149.061,145.132 149.061,144.472L149.061,113.187C149.061,112.527 148.525,111.991 147.865,111.991ZM157.646,113.187C157.646,112.527 157.11,111.991 156.45,111.991L154.058,111.991C153.398,111.991 152.863,112.527 152.863,113.187L152.863,144.472C152.863,145.132 153.398,145.668 154.058,145.668L156.45,145.668C157.11,145.668 157.646,145.132 157.646,144.472L157.646,113.187ZM165.036,111.991L162.644,111.991C161.984,111.991 161.448,112.527 161.448,113.187L161.448,144.472C161.448,145.132 161.984,145.668 162.644,145.668L165.036,145.668C165.696,145.668 166.231,145.132 166.231,144.472L166.231,113.187C166.231,112.527 165.696,111.991 165.036,111.991Z" style="fill:rgb(226,0,116);"/>
        </g>
        <g transform="matrix(1.0022,0,0,1.0022,-0.16814,-0.167034)">
            <path d="M127.886,0.167C198.376,0.167 255.605,57.395 255.605,127.885C255.605,198.375 198.376,255.604 127.886,255.604C57.397,255.604 0.168,198.375 0.168,127.885C0.168,57.395 57.397,0.167 127.886,0.167ZM127.886,15.134C190.116,15.134 240.638,65.656 240.638,127.885C240.638,190.114 190.116,240.637 127.886,240.637C65.657,240.637 15.135,190.114 15.135,127.885C15.135,65.656 65.657,15.134 127.886,15.134Z" style="fill:rgb(226,0,116);"/>
        </g>
    </g>
</svg>
