<svg xmlns="http://www.w3.org/2000/svg" fill="none" viewBox="0 0 150 194">
  <linearGradient id="a" x1="75" x2="106.522" y1="17.412" y2="125.731" gradientUnits="userSpaceOnUse">
    <stop offset="0" stop-color="#5e6294"/>
    <stop offset="1" stop-color="#878bb2"/>
  </linearGradient>
  <circle cx="75" cy="72.316" r="54.904" fill="url(#a)" opacity=".2"/>
  <path fill="#5e6294" fill-rule="evenodd" d="M75 140.857c37.854 0 68.541-30.687 68.541-68.54 0-37.855-30.687-68.542-68.541-68.542S6.46 34.462 6.46 72.316 37.145 140.857 75 140.857zm0-13.637c30.323 0 54.904-24.581 54.904-54.904 0-30.323-24.581-54.904-54.904-54.904-30.323 0-54.904 24.581-54.904 54.904 0 30.323 24.581 54.904 54.904 54.904z" clip-rule="evenodd" opacity=".14"/>
  <path fill="#ef7b4d" d="M43.626 101.083C36.116 97.83 30.86 90.352 30.86 81.646c0-8.14 4.594-15.207 11.33-18.75-.467-18.61 14.497-34.001 33.168-34.001 18.67 0 33.634 15.391 33.167 34 6.737 3.544 11.33 10.611 11.33 18.751 0 8.706-5.254 16.184-12.764 19.437l-1.226 32.572c.351 8.432 2.893 9.131 12.457 11.761.923.253 1.911.525 2.969.824-7.878 1.8-12.827 2.048-15.941 1.108l-.566 15.04c-1.264 14.215-1.137 14.248 8.458 16.745 1.305.34 2.785.725 4.46 1.197-20.66 4.723-20.93-4.635-21.173-13.097-.048-1.691-.096-3.346-.305-4.845h-.77l-.135 1.659v.014c-.965 11.835-1.296 15.897.563 17.688.97.936 2.54 1.252 4.927 1.734 2.498.503 5.891 1.186 10.434 2.948-24.362 3.392-24.343-4.346-24.312-17.521.005-2.05.01-4.231-.076-6.522h-.731c-1.13 25.397.183 25.719 8.822 27.838 2.347.576 5.235 1.284 8.761 2.664-24.826 2.759-25.82-4.296-27.35-15.164-.27-1.926-.559-3.971-1-6.102-.44 2.131-.727 4.176-.998 6.102-1.53 10.868-2.524 17.923-27.35 15.164 3.526-1.38 6.414-2.088 8.76-2.664 8.64-2.119 9.952-2.441 8.823-27.838h-.732c-.086 2.291-.08 4.472-.076 6.522.032 13.175.05 20.913-24.311 17.521 4.543-1.762 7.936-2.445 10.433-2.948 2.388-.482 3.957-.798 4.928-1.734 1.858-1.791 1.527-5.853.564-17.688l-.137-1.673h-.77c-.208 1.499-.256 3.154-.305 4.845-.243 8.462-.512 17.82-21.172 13.097 1.675-.472 3.155-.857 4.46-1.197 9.595-2.497 9.722-2.53 8.458-16.745l-.566-15.04c-3.115.94-8.063.692-15.941-1.108 1.058-.299 2.046-.571 2.969-.824 9.564-2.63 12.106-3.329 12.457-11.761z"/>
  <circle cx="50.957" cy="82.005" r="15.79" fill="#fefefe"/>
  <circle cx="50.598" cy="79.493" r="5.383" fill="#000"/>
  <circle cx="97.608" cy="82.005" r="15.79" fill="#fefefe"/>
  <circle cx="97.249" cy="79.493" r="5.383" fill="#000"/>
  <path fill="#fafafa" d="M63.158 111.431s5.741 5.741 12.2 5.741c6.46 0 12.202-5.741 12.202-5.741v7.177c0 6.738-5.463 12.201-12.201 12.201s-12.201-5.463-12.201-12.201z"/>
  <path fill="#202124" d="M63.158 117.172s5.741 5.742 12.2 5.742c6.46 0 12.202-5.742 12.202-5.742v1.436c0 6.738-5.463 12.201-12.201 12.201s-12.201-5.463-12.201-12.201z"/>
  <path stroke="#5e6294" stroke-linecap="round" stroke-width="4.306" d="M29.413 106.647a56.797 56.797 0 0 1-11.44-34.044c-.085-20.596 10.754-38.689 27.072-48.788" opacity=".16"/>
  <g fill="#5e6294">
    <circle cx="52.392" cy="18.847" r="2.871" opacity=".45"/>
    <rect width="6.459" height="33.014" y="56.168" rx="2.871"/>
    <rect width="6.459" height="33.014" x="143.541" y="56.168" rx="2.871"/>
    <path fill-opacity=".2" fill-rule="evenodd" d="M75 144.445c39.836 0 72.129-32.293 72.129-72.129C147.129 32.48 114.836.187 75 .187 35.164.187 2.87 32.48 2.87 72.317c0 39.835 32.294 72.128 72.13 72.128zm0-3.588c37.854 0 68.541-30.687 68.541-68.54 0-37.855-30.687-68.541-68.541-68.541S6.46 34.462 6.46 72.316c0 37.854 30.686 68.541 68.54 68.541z" clip-rule="evenodd"/>
  </g>
  <path fill="#f77f4f" d="M67.785 45.11c-.722 3.375-3.653 5.61-6.548 4.991-2.894-.618-4.75-3.32-4.029-6.696s5.133-6.961 8.028-6.343c2.894.619 3.27 4.672 2.549 8.047z"/>
</svg>
