<?xml version="1.0" encoding="UTF-8"?>
<svg xmlns="http://www.w3.org/2000/svg" version="1.1" viewBox="0 0 800 800">
  <defs>
    <style>
      .cls-1 {
        fill: #ff4c00;
      }
    </style>
  </defs>
  <!-- Generator: Adobe Illustrator 28.6.0, SVG Export Plug-In . SVG Version: 1.2.0 Build 709)  -->
  <g>
    <g id="Layer_1">
      <path class="cls-1" d="M715.45,320.15c-51.73-65.06-124.07-128.2-218.81-185.17l-.36-.19c-95.51-55.6-185.03-88.24-265.87-101.64-50.45-8.36-74.57,1.35-85.53,7.85-10.98,6.49-31.25,23.03-49.4,71.99-29.11,78.45-46.3,174.22-47.07,286.8v.41c.77,112.58,17.96,208.36,47.07,286.8,18.16,48.98,38.43,65.51,49.4,71.99,10.96,6.5,35.08,16.23,85.53,7.87,80.84-13.4,170.37-46.04,265.87-101.63l.36-.21c94.73-56.96,167.08-120.11,218.81-185.18,32.29-40.6,36.13-66.86,36.13-79.84s-3.84-39.23-36.13-79.84Z"/>
    </g>
  </g>
</svg>
