<?xml version="1.0" encoding="UTF-8" standalone="no"?>
<!-- Created with Inkscape (http://www.inkscape.org/) -->

<svg
   width="49460.898"
   height="4195.4009"
   viewBox="0 0 49460.898 4195.4009"
   version="1.1"
   id="svg1"
   xml:space="preserve"
   inkscape:version="1.4 (86a8ad7, 2024-10-11)"
   sodipodi:docname="logo w border name.svg"
   inkscape:export-filename="logo w name.png"
   inkscape:export-xdpi="24"
   inkscape:export-ydpi="24"
   xmlns:inkscape="http://www.inkscape.org/namespaces/inkscape"
   xmlns:sodipodi="http://sodipodi.sourceforge.net/DTD/sodipodi-0.dtd"
   xmlns:xlink="http://www.w3.org/1999/xlink"
   xmlns="http://www.w3.org/2000/svg"
   xmlns:svg="http://www.w3.org/2000/svg"><sodipodi:namedview
     id="namedview1"
     pagecolor="#303030"
     bordercolor="#000000"
     borderopacity="0.25"
     inkscape:showpageshadow="2"
     inkscape:pageopacity="0.0"
     inkscape:pagecheckerboard="0"
     inkscape:deskcolor="#d1d1d1"
     inkscape:document-units="mm"
     inkscape:zoom="0.01"
     inkscape:cx="20700"
     inkscape:cy="16150"
     inkscape:window-width="1920"
     inkscape:window-height="1009"
     inkscape:window-x="-7"
     inkscape:window-y="-1"
     inkscape:window-maximized="1"
     inkscape:current-layer="svg1" /><defs
     id="defs1"><rect
       x="4096"
       y="0"
       width="16384"
       height="4096"
       id="rect4" /><rect
       x="4096"
       y="0"
       width="16384"
       height="4096"
       id="rect3" /><rect
       x="4096"
       y="0"
       width="16384"
       height="4096"
       id="rect2-4" /><rect
       x="4445.5093"
       y="670.17731"
       width="8868.6797"
       height="3425.8228"
       id="rect1" /><rect
       x="4096"
       y="0"
       width="16384"
       height="4096"
       id="rect4-4" /><rect
       x="4096"
       y="0"
       width="16384"
       height="4096"
       id="rect3-8" /><rect
       x="4096"
       y="0"
       width="16384"
       height="4096"
       id="rect2-8" /><rect
       x="4445.5093"
       y="670.17731"
       width="8868.6797"
       height="3425.8228"
       id="rect1-2" /><linearGradient
       id="linearGradient4"
       inkscape:collect="always"><stop
         style="stop-color:#eadf95;stop-opacity:1;"
         offset="0.49624062"
         id="stop4" /><stop
         style="stop-color:#c2a30a;stop-opacity:1;"
         offset="1"
         id="stop5" /></linearGradient><linearGradient
       id="linearGradient2"
       inkscape:collect="always"><stop
         style="stop-color:#ffffff;stop-opacity:1;"
         offset="0"
         id="stop2" /><stop
         style="stop-color:#ffffff;stop-opacity:0.80196077;"
         offset="0.25166512"
         id="stop7" /><stop
         style="stop-color:#ffffff;stop-opacity:0;"
         offset="0.60000002"
         id="stop3" /></linearGradient><linearGradient
       inkscape:collect="always"
       xlink:href="#linearGradient2"
       id="linearGradient3"
       x1="119.69482"
       y1="535.60992"
       x2="659.27179"
       y2="535.60992"
       gradientUnits="userSpaceOnUse" /><linearGradient
       inkscape:collect="always"
       xlink:href="#linearGradient4"
       id="linearGradient5"
       x1="546.59839"
       y1="2048"
       x2="3549.4016"
       y2="2048"
       gradientUnits="userSpaceOnUse"
       gradientTransform="matrix(0.75553128,0,0,0.75553128,500.67188,573.05006)" /></defs><g
     id="layer2"
     inkscape:label="Name"
     transform="translate(228.07751,49.700352)"><path
       d="m 8013.2838,1581.056 q -77.824,-143.36 -225.28,-217.088 -143.36,-77.824 -339.968,-77.824 -339.968,0 -544.768,225.28 -204.8,221.184 -204.8,593.9201 0,397.3119 212.992,622.592 217.088,221.184 593.92,221.184 258.048,0 434.176,-131.072 180.224,-131.0721 262.144,-376.832 h -888.832 V 1925.12 h 1523.712 v 651.264 q -77.824,262.1441 -266.24,487.424 -184.32,225.28 -471.04,364.544 -286.72,139.264 -647.168,139.264 -425.984,0 -761.856,-184.32 -331.776,-188.416 -520.192,-520.192 -184.32,-331.776 -184.32,-757.7599 0,-425.984 184.32,-757.7601 188.416,-335.872 520.192,-520.192 331.776,-188.416 757.76,-188.416 516.096,0 868.352,249.856 356.352,249.856 471.04,692.224 z M 10266.08,3579.904 q -335.8722,0 -606.2082,-143.36 -266.24,-143.36 -421.888,-409.6 -151.552,-266.24 -151.552,-622.592 0,-352.2559 155.648,-618.496 155.648,-270.336 425.984,-413.696 270.336,-143.36 606.2082,-143.36 335.872,0 606.208,143.36 270.336,143.36 425.984,413.696 155.648,266.2401 155.648,618.496 0,352.256 -159.744,622.592 -155.648,266.24 -430.08,409.6 -270.336,143.36 -606.208,143.36 z m 0,-606.208 q 200.704,0 339.968,-147.456 143.36,-147.456 143.36,-421.888 0,-274.4319 -139.264,-421.8879 -135.168,-147.4561 -335.872,-147.4561 -204.8,0 -339.9682,147.4561 -135.168,143.36 -135.168,421.8879 0,274.432 131.072,421.888 135.1682,147.456 335.8722,147.456 z m 3235.836,573.44 -966.656,-1269.7599 V 3547.136 h -700.416 V 671.744 h 700.416 v 1261.568 l 958.464,-1261.568 h 823.296 l -1114.112,1409.0241 1155.071,1466.3679 z m 3444.738,-2285.568 v 2285.568 h -700.416 V 3235.84 q -106.496,151.552 -290.816,245.76 -180.225,90.112 -401.408,90.112 -262.144,0 -462.848,-114.688 -200.704,-118.784 -311.296,-339.968 -110.593,-221.1839 -110.593,-520.1919 V 1261.568 h 696.32 v 1241.088 q 0,229.3761 118.785,356.352 118.784,126.976 319.488,126.976 204.799,0 323.584,-126.976 118.784,-126.976 118.784,-356.352 V 1261.568 Z m 1204.223,323.584 q 98.304,-159.744 282.624,-258.048 184.32,-98.304 421.888,-98.304 282.624,0 512,143.36 229.376,143.36 360.448,409.6 135.168,266.2401 135.168,618.496 0,352.256 -135.168,622.592 -131.072,266.24 -360.448,413.696 -229.376,143.36 -512,143.36 -241.664,0 -421.888,-94.208 -180.223,-98.304 -282.624,-258.048 v 319.488 h -700.416 V 516.096 h 700.416 z m 999.424,815.104 q 0,-262.1439 -147.456,-409.5999 -143.36,-151.5521 -356.351,-151.5521 -208.896,0 -356.352,151.5521 -143.36,151.552 -143.36,413.6959 0,262.144 143.36,413.696 147.456,151.552 356.352,151.552 208.896,0 356.351,-151.552 147.456,-155.648 147.456,-417.792 z m 3235.843,-32.768 q 0,98.304 -12.288,204.8 h -1585.152 q 16.384,212.9921 135.168,327.68 122.881,110.592 299.009,110.592 262.144,0 364.544,-221.184 h 745.472 q -57.344,225.28 -208.896,405.504 -147.456,180.224 -372.736,282.624 -225.28,102.4 -503.808,102.4 -335.872,0 -598.016,-143.36 -262.144,-143.36 -409.6,-409.6 -147.456,-266.24 -147.456,-622.592 0,-356.3519 143.36,-622.592 147.456,-266.24 409.6,-409.6 262.144,-143.36 602.112,-143.36 331.776,0 589.824,139.264 258.048,139.264 401.408,397.312 147.456,258.0481 147.455,602.112 z m -716.8,-184.32 q 0,-180.2239 -122.88,-286.72 -122.88,-106.496 -307.2,-106.496 -176.128,0 -299.008,102.4 -118.784,102.4001 -147.456,290.816 z M 23832.029,671.744 q 454.656,0 794.624,180.224 339.968,180.224 524.288,507.904 188.417,323.5841 188.417,749.5681 0,421.8879 -188.417,749.5679 -184.32,327.68 -528.383,507.904 -339.968,180.224 -790.528,180.224 H 22754.781 V 671.744 Z m -45.056,2269.184 q 397.313,0 618.496,-217.088 221.184,-217.088 221.184,-614.3999 0,-397.3121 -221.184,-618.4961 -221.184,-221.184 -618.496,-221.184 h -331.776 v 1671.168 z m 2985.981,638.976 q -335.872,0 -606.208,-143.36 -266.24,-143.36 -421.887,-409.6 -151.552,-266.24 -151.552,-622.592 0,-352.2559 155.648,-618.496 155.648,-270.336 425.984,-413.696 270.336,-143.36 606.208,-143.36 335.872,0 606.207,143.36 270.336,143.36 425.985,413.696 155.648,266.2401 155.648,618.496 0,352.256 -159.744,622.592 -155.648,266.24 -430.08,409.6 -270.336,143.36 -606.209,143.36 z m 0,-606.208 q 200.704,0 339.968,-147.456 143.36,-147.456 143.36,-421.888 0,-274.4319 -139.263,-421.8879 -135.169,-147.4561 -335.872,-147.4561 -204.8,0 -339.968,147.4561 -135.169,143.36 -135.169,421.8879 0,274.432 131.072,421.888 135.169,147.456 335.872,147.456 z m 4849.66,-1712.128 -618.496,2285.568 h -774.144 L 29869.526,2064.3841 29496.79,3547.136 h -770.048 L 28104.15,1261.5681 h 700.416 l 323.584,1634.304 385.024,-1634.304 h 741.376 l 389.12,1626.112 319.488,-1626.112 z m 1658.877,-24.576 q 401.408,0 638.976,262.144 241.664,258.048 241.664,712.7041 V 3547.136 h -696.32 V 2306.048 q 0,-229.3759 -118.784,-356.3519 -118.784,-126.9761 -319.488,-126.9761 -200.704,0 -319.488,126.9761 -118.784,126.976 -118.784,356.3519 v 1241.088 h -700.416 V 1261.568 h 700.416 v 303.104 q 106.496,-151.5519 286.72,-237.568 180.224,-90.112 405.504,-90.112 z m 2297.855,2342.912 q -299.008,0 -532.48,-102.4 -233.472,-102.4 -368.64,-278.528 -135.168,-180.224 -151.552,-401.408 h 692.224 q 12.288,118.784 110.592,192.512 98.304,73.728 241.664,73.728 131.072,0 200.704,-49.152 73.728,-53.248 73.728,-135.168 0,-98.304 -102.4,-143.36 -102.4,-49.152 -331.776,-106.496 -245.76,-57.344 -409.6,-118.784 -163.84,-65.536 -282.624,-200.704 -118.784,-139.264 -118.784,-372.736 0,-196.608 106.496,-356.352 110.592,-163.84 319.488,-258.048 212.992,-94.208 503.808,-94.208 430.08,0 675.84,212.992 249.856,212.992 286.72,565.2481 h -647.168 q -16.384,-118.7841 -106.496,-188.4161 -86.016,-69.632 -229.376,-69.632 -122.88,0 -188.416,49.152 -65.536,45.056 -65.536,126.976 0,98.3041 102.4,147.4561 106.496,49.152 327.68,98.3039 253.952,65.536 413.696,131.072 159.744,61.44 278.528,204.8 122.88,139.264 126.976,376.832 0,200.704 -114.688,360.448 -110.592,155.648 -323.584,245.76 -208.896,90.112 -487.424,90.112 z m 1216.515,-1175.552 q 0,-356.3519 143.36,-622.592 147.456,-266.24 405.504,-409.6 262.144,-143.36 598.017,-143.36 430.08,0 716.8,225.28 290.816,225.28 380.928,634.8801 h -745.472 q -94.208,-262.1441 -364.544,-262.1441 -192.513,0 -307.2,151.5521 -114.688,147.456 -114.688,425.9839 0,278.528 114.688,430.08 114.688,147.456 307.2,147.456 270.336,0 364.544,-262.144 h 745.472 q -90.112,401.408 -380.928,630.784 -290.816,229.376 -716.8,229.376 -335.873,0 -598.017,-143.36 -258.048,-143.36 -405.504,-409.6 -143.36,-266.24 -143.36,-622.592 z m 2478.078,-4.096 q 0,-352.2559 131.072,-618.496 135.168,-266.24 364.545,-409.6 229.375,-143.36 512,-143.36 241.663,0 421.887,98.304 184.32,98.304 282.625,258.048 v -323.584 h 700.416 v 2285.568 h -700.416 v -323.584 q -102.4,159.744 -286.72,258.048 -180.225,98.304 -421.888,98.304 -278.528,0 -507.904,-143.36 -229.376,-147.456 -364.545,-413.6959 -131.072,-270.336 -131.072,-622.5921 z m 1712.128,4.096 q 0,-262.1439 -147.456,-413.6959 -143.36,-151.5521 -352.256,-151.5521 -208.896,0 -356.352,151.5521 -143.36,147.456 -143.36,409.5999 0,262.144 143.36,417.792 147.456,151.552 356.352,151.552 208.896,0 352.256,-151.552 147.456,-151.552 147.456,-413.696 z M 42894.806,516.096 v 3031.04 H 42194.39 V 516.096 Z m 2662.401,1851.392 q 0,98.304 -12.288,204.8 h -1585.152 q 16.384,212.9921 135.168,327.68 122.88,110.592 299.008,110.592 262.144,0 364.544,-221.184 h 745.472 q -57.344,225.28 -208.896,405.504 -147.456,180.224 -372.736,282.624 -225.28,102.4 -503.807,102.4 -335.873,0 -598.017,-143.36 -262.144,-143.36 -409.6,-409.6 -147.455,-266.24 -147.455,-622.592 0,-356.3519 143.36,-622.592 147.455,-266.24 409.599,-409.6 262.144,-143.36 602.113,-143.36 331.775,0 589.824,139.264 258.048,139.264 401.408,397.312 147.456,258.0481 147.455,602.112 z m -716.8,-184.32 q 0,-180.2239 -122.88,-286.72 -122.88,-106.496 -307.2,-106.496 -176.127,0 -299.008,102.4 -118.784,102.4001 -147.456,290.816 z m 1785.852,-540.672 q 122.88,-188.416 307.2,-294.912 184.32,-110.592 409.6,-110.592 v 741.3761 h -192.512 q -262.144,0 -393.216,114.688 -131.072,110.5919 -131.072,393.2159 v 1060.864 h -700.416 V 1261.568 h 700.416 z"
       id="text4"
       style="font-weight:bold;font-size:4096px;font-family:Poppins;-inkscape-font-specification:'Poppins Bold';fill:#ffffff;fill-opacity:1"
       inkscape:label="name"
       aria-label=" GoKubeDownscaler  " /><rect
       style="fill:none;stroke-width:1.42397"
       id="rect2"
       width="1889.7638"
       height="4195.4009"
       x="4096"
       y="-49.700352"
       ry="1550.4741"
       inkscape:label="paddingL" /><rect
       style="fill:none;fill-opacity:1;stroke-width:1.42397"
       id="rect2-1"
       width="1889.7638"
       height="4195.4009"
       x="47343.059"
       y="-49.700352"
       ry="1550.474"
       inkscape:label="paddingR" /></g><g
     id="g1"
     transform="translate(-2.1333169e-5,49.700444)"
     inkscape:label="Logo"><g
       id="g2"
       transform="translate(2.2932987e-5,-49.700351)"><g
         id="layer3"
         inkscape:label="Kubernetes Logo"
         transform="translate(114.03871,49.700588)"><g
           id="layer2-4"
           inkscape:label="heptagon"
           transform="translate(-114.03871,-49.700588)"><path
             style="fill:#ffffff;fill-opacity:1;stroke:none;stroke-width:0;stroke-miterlimit:4;stroke-dasharray:none;stroke-opacity:1"
             d="m 2033.0104,-49.331906 a 287.46123,285.09373 0 0 0 -110.1633,27.8761 L 419.58459,696.7802 a 287.46123,285.09373 0 0 0 -155.5366,193.4015 l -370.8645,1613.3406 a 287.46123,285.09373 0 0 0 39.028003,218.5852 287.46123,285.09373 0 0 0 16.3419,22.685 L 989.05169,4038.4257 a 287.46123,285.09373 0 0 0 224.74911,107.2744 l 1668.6037,-0.3839 a 287.46123,285.09373 0 0 0 224.7491,-107.0813 L 4147.2673,2744.4091 a 287.46123,285.09373 0 0 0 55.5625,-241.2702 L 3831.3882,889.7977 A 287.46123,285.09373 0 0 0 3675.8516,696.3968 L 2172.3971,-21.455206 a 287.46123,285.09373 0 0 0 -139.3867,-27.8756 z"
             id="path3055-3"
             inkscape:connector-curvature="0"
             inkscape:export-filename="new.png"
             inkscape:export-xdpi="250.55"
             inkscape:export-ydpi="250.55"
             inkscape:label="outline"
             transform="translate(114.03871,49.700588)" /><path
             style="fill:#091734;fill-opacity:1;stroke:none;stroke-width:0;stroke-miterlimit:4;stroke-dasharray:none;stroke-opacity:1"
             d="m 2033.8014,61.18853 a 272.29883,270.07045 0 0 0 -104.353,26.406989 L 505.47725,767.98381 A 272.29883,270.07045 0 0 0 358.14438,951.19325 L 6.84145,2479.5174 a 272.29883,270.07045 0 0 0 36.969561,207.067 272.29883,270.07045 0 0 0 15.479901,21.4897 L 1044.9069,3933.5379 a 272.29883,270.07045 0 0 0 212.8949,101.6211 l 1580.5916,-0.3618 a 272.29883,270.07045 0 0 0 212.8943,-101.4391 l 985.252,-1225.6463 a 272.29883,270.07045 0 0 0 52.6315,-228.5562 L 3737.3218,950.83151 A 272.29883,270.07045 0 0 0 3589.9895,767.62152 L 2165.8358,87.597745 A 272.29883,270.07045 0 0 0 2033.8014,61.190756 Z"
             id="path3055-5"
             inkscape:connector-curvature="0"
             inkscape:export-filename="new.png"
             inkscape:export-xdpi="250.55"
             inkscape:export-ydpi="250.55"
             inkscape:label="heptagon"
             transform="translate(114.03871,49.700588)" /></g><path
           inkscape:connector-curvature="0"
           id="path3059"
           d="m 389.46729,272.05685 c -8.45813,8.6e-4 -15.31619,7.61928 -15.31519,17.01687 10e-6,0.14423 0.0295,0.28205 0.0327,0.42542 -0.0125,1.27691 -0.0741,2.81523 -0.0327,3.92697 0.20171,5.42027 1.38324,9.56871 2.09439,14.56252 1.28834,10.68834 2.36788,19.54832 1.70169,27.78333 -0.64789,3.10534 -2.93516,5.94534 -4.97417,7.91939 l -0.35997,6.4795 c -9.19102,0.76149 -18.44352,2.1559 -27.68515,4.25422 -39.76672,9.02908 -74.00517,29.5131 -100.07232,57.17016 -1.69145,-1.15393 -4.65062,-3.27681 -5.53054,-3.92697 -2.7344,0.36926 -5.49798,1.21295 -9.09748,-0.88357 -6.85378,-4.61354 -13.09606,-10.98183 -20.64933,-18.65311 -3.46095,-3.66956 -5.96724,-7.16386 -10.07923,-10.701 -0.9338,-0.80327 -2.35888,-1.88971 -3.40337,-2.71616 -3.21476,-2.56307 -7.00645,-3.89976 -10.66827,-4.02514 -4.70807,-0.16121 -9.24037,1.67954 -12.20634,5.39958 -5.27283,6.61342 -3.58466,16.72163 3.76335,22.58009 0.0746,0.0594 0.15396,0.10554 0.22907,0.16362 1.00973,0.81851 2.24619,1.86728 3.1743,2.55254 4.36352,3.22174 8.34948,4.87096 12.69721,7.42852 9.15979,5.65673 16.75337,10.34716 22.77644,16.00241 2.35201,2.50715 2.7631,6.925 3.07612,8.83568 l 4.90872,4.38512 c -26.27764,39.54584 -38.43915,88.39294 -31.2521,138.16395 l -6.41405,1.86531 c -1.69048,2.18299 -4.07925,5.61791 -6.57773,6.64313 -7.88026,2.48206 -16.74905,3.39352 -27.45608,4.51601 -5.02684,0.41799 -9.36418,0.16855 -14.69342,1.17809 -1.17293,0.2222 -2.80722,0.64798 -4.09059,0.94902 -0.0446,0.009 -0.0863,0.0226 -0.1309,0.0327 -0.07,0.0162 -0.16185,0.0502 -0.22907,0.0654 -9.02695,2.18109 -14.82588,10.47821 -12.95901,18.65312 1.86731,8.17682 10.68465,13.14935 19.76576,11.19187 0.0656,-0.015 0.16074,-0.0175 0.22907,-0.0327 0.10252,-0.0235 0.19278,-0.0732 0.29452,-0.0981 1.2659,-0.27788 2.85232,-0.58705 3.9597,-0.88357 5.23946,-1.40285 9.03407,-3.46407 13.7444,-5.26868 10.13362,-3.63457 18.52665,-6.67085 26.70341,-7.85395 3.41508,-0.26747 7.01316,2.10712 8.80296,3.10886 l 6.67585,-1.14537 c 15.3625,47.62926 47.55736,86.12636 88.32413,110.28245 l -2.7816,6.67585 c 1.0026,2.59224 2.10843,6.09958 1.36158,8.65957 -2.97265,7.70859 -8.0644,15.84504 -13.86244,24.91604 -2.80737,4.19078 -5.68053,7.44303 -8.21392,12.23906 -0.60622,1.14761 -1.37829,2.91048 -1.96348,4.12332 -3.93623,8.4219 -1.04891,18.12187 6.51223,21.76197 7.60863,3.66295 17.05297,-0.20037 21.14019,-8.63934 0.006,-0.0119 0.0269,-0.0207 0.0327,-0.0327 0.004,-0.009 -0.004,-0.0236 0,-0.0327 0.58217,-1.19647 1.40694,-2.76916 1.89804,-3.89424 2.16992,-4.97105 2.89194,-9.23107 4.41784,-14.03893 4.05224,-10.17885 6.27862,-20.85905 11.85692,-27.51404 1.52752,-1.82236 4.01788,-2.52321 6.59985,-3.21451 l 3.46882,-6.28315 c 35.53987,13.64156 75.32106,17.30219 115.06027,8.27936 9.06551,-2.05833 17.81739,-4.72226 26.27798,-7.91939 0.97492,1.72926 2.78672,5.05344 3.27248,5.89046 2.62384,0.85365 5.48775,1.29447 7.82122,4.74509 4.17347,7.13031 7.0276,15.56563 10.50465,25.75439 1.52615,4.80777 2.28038,9.06798 4.45057,14.03892 0.49463,1.13301 1.31527,2.72779 1.89803,3.92697 4.07863,8.46638 13.55289,12.34291 21.17292,8.67206 7.56021,-3.64203 10.45071,-13.34112 6.51223,-21.76196 -0.58526,-1.2128 -1.38994,-2.97575 -1.99621,-4.12332 -2.53364,-4.79589 -5.40634,-8.01572 -8.21392,-12.20634 -5.79852,-9.0707 -10.60772,-16.60606 -13.58077,-24.3145 -1.24313,-3.97574 0.20973,-6.44834 1.17809,-9.03203 -0.57991,-0.66473 -1.82087,-4.41925 -2.55253,-6.18498 42.36668,-25.0155 73.61612,-64.94823 88.29141,-111.06785 1.9817,0.31146 5.42607,0.92086 6.54495,1.14537 2.30334,-1.51916 4.42118,-3.50131 8.57389,-3.1743 8.17681,1.18266 16.5696,4.2199 26.7034,7.85394 4.71043,1.80438 8.50488,3.89883 13.7444,5.30141 1.1074,0.29645 2.69378,0.57303 3.9597,0.85085 0.10179,0.0249 0.19195,0.0748 0.29452,0.0981 0.0684,0.0153 0.16352,0.0177 0.22908,0.0327 9.08163,1.95506 17.90054,-3.01456 19.76575,-11.19187 1.86478,-8.17539 -3.93147,-16.47444 -12.959,-18.65311 -1.31311,-0.29859 -3.17535,-0.80569 -4.45057,-1.0472 -5.32929,-1.00926 -9.66655,-0.76036 -14.69342,-1.17809 -10.70708,-1.12194 -19.57569,-2.03437 -27.45607,-4.51601 -3.21306,-1.24646 -5.49884,-5.06971 -6.61046,-6.64313 l -6.18498,-1.79986 c 3.20678,-23.19994 2.3421,-47.34497 -3.20703,-71.50361 -5.60079,-24.38357 -15.49883,-46.68472 -28.69961,-66.33309 1.58655,-1.44229 4.58271,-4.09548 5.43231,-4.87599 0.24835,-2.74801 0.035,-5.62922 2.87978,-8.67206 6.02276,-5.65557 13.61694,-10.3452 22.77643,-16.00241 4.3476,-2.55779 8.36659,-4.20655 12.72993,-7.42852 0.98672,-0.7286 2.33409,-1.88243 3.37065,-2.71616 7.34646,-5.86043 9.03788,-15.96803 3.76335,-22.58009 -5.27453,-6.61205 -15.49543,-7.23487 -22.84188,-1.37444 -1.04569,0.82818 -2.4646,1.90853 -3.40338,2.71616 -4.1118,3.53737 -6.65119,7.03126 -10.11195,10.701 -7.55286,7.67168 -13.79578,14.07193 -20.64932,18.68584 -2.96985,1.72897 -7.31984,1.13073 -9.29389,1.01446 l -5.82501,4.15605 C 500.27311,376.86318 455.0492,354.59475 406.3533,350.26897 c -0.1362,-2.04069 -0.31463,-5.72937 -0.35997,-6.83948 -1.99355,-1.90762 -4.40179,-3.53622 -5.00689,-7.65759 -0.66619,-8.23501 0.44607,-17.09499 1.73441,-27.78333 0.71115,-4.99381 1.89268,-9.14225 2.09439,-14.56252 0.0459,-1.23215 -0.0277,-3.02011 -0.0327,-4.35239 -10e-4,-9.39759 -6.85705,-17.01772 -15.31518,-17.01687 z m -19.17671,118.79088 -4.54874,80.33929 -0.32725,0.16363 c -0.30509,7.18725 -6.22028,12.92628 -13.4826,12.92628 -2.97487,0 -5.72075,-0.95534 -7.95212,-2.58526 l -0.1309,0.0654 -65.87494,-46.69823 c 20.24605,-19.90834 46.14234,-34.62059 75.9869,-41.39683 5.45167,-1.23781 10.90091,-2.15627 16.32965,-2.81433 z m 38.38615,0 c 34.84372,4.28545 67.06745,20.06297 91.76023,44.24388 l -65.44952,46.40371 -0.22908,-0.0981 c -5.80924,4.2429 -13.99408,3.19016 -18.52221,-2.48708 -1.85491,-2.32577 -2.82817,-5.06044 -2.94523,-7.82122 l -0.0655,-0.0327 z m -154.59178,74.21976 60.14811,53.79951 -0.0654,0.32725 c 5.42904,4.71967 6.22963,12.90973 1.70169,18.58767 -1.85478,2.32586 -4.33755,3.88585 -7.0031,4.61419 l -0.0654,0.2618 -77.09954,22.25283 c -3.92412,-35.88222 4.53283,-70.7626 22.38374,-99.84325 z m 270.33926,0.0327 c 8.93685,14.48535 15.70428,30.66403 19.73304,48.20357 3.98044,17.32923 4.97939,34.62748 3.33792,51.34515 l -77.49224,-22.31828 -0.0654,-0.32725 c -6.93922,-1.89651 -11.20383,-8.95519 -9.58835,-16.03514 0.66186,-2.90032 2.20143,-5.35391 4.28694,-7.16672 l -0.0327,-0.16362 59.82087,-53.53771 z M 377.13006,523.023 h 24.64174 l 15.31519,19.14398 -5.49776,23.88908 -22.12194,10.63555 -22.18739,-10.66828 -5.49776,-23.88907 z m 78.99757,65.51497 c 1.04717,-0.0529 2.08976,0.0415 3.10886,0.22907 l 0.1309,-0.16362 79.75024,13.4826 c -11.67148,32.79084 -34.00528,61.19811 -63.84601,80.20839 l -30.95762,-74.77608 0.0981,-0.1309 c -2.84377,-6.60777 0.002,-14.35654 6.54495,-17.50774 1.67514,-0.80677 3.42525,-1.2535 5.17051,-1.34172 z m -133.94245,0.32725 c 6.08601,0.0853 11.5449,4.30946 12.95901,10.50465 0.66202,2.90028 0.33981,5.77395 -0.75267,8.31209 l 0.22907,0.29452 -30.63038,74.02341 C 275.35248,663.62313 252.54242,636.1077 240.34055,602.34787 l 79.06303,-13.41715 0.1309,0.16362 c 0.88436,-0.16274 1.78127,-0.24127 2.6507,-0.22907 z m 66.79124,32.43029 c 2.11999,-0.0779 4.27113,0.35707 6.31588,1.34172 2.6803,1.29069 4.75083,3.32294 6.05408,5.75955 h 0.29452 l 38.9752,70.42369 c -5.05825,1.69565 -10.25839,3.1448 -15.57699,4.3524 -29.80784,6.7679 -59.52097,4.71725 -86.4261,-4.45057 l 38.87702,-70.29279 h 0.0654 c 2.3328,-4.36094 6.75698,-6.96265 11.42094,-7.134 z"
           style="color:#000000;font-style:normal;font-variant:normal;font-weight:normal;font-stretch:normal;font-size:medium;line-height:normal;font-family:Sans;-inkscape-font-specification:Sans;text-indent:0;text-align:start;text-decoration:none;text-decoration-line:none;letter-spacing:normal;word-spacing:normal;text-transform:none;writing-mode:lr-tb;direction:ltr;baseline-shift:baseline;text-anchor:start;display:inline;overflow:visible;visibility:visible;fill:url(#linearGradient3);fill-opacity:1;stroke:none;stroke-width:0;stroke-miterlimit:4;stroke-dasharray:none;stroke-opacity:1;marker:none;enable-background:accumulate"
           sodipodi:nodetypes="ccccccccsccccscssccsccccccccscccsccccccccccccccscccscsccsccccscscsccccccccscccscsccccsccccscscscccccccccccccccscccsccccccccccccscccccscccccccccccccccccccccccscccscccccccccscccscccc"
           inkscape:export-filename="./path3059.png"
           inkscape:export-xdpi="250.55"
           inkscape:export-ydpi="250.55"
           inkscape:label="wheel"
           transform="matrix(5.5651065,0,0,5.7354899,-119.51601,-1023.9857)" /></g><g
         inkscape:label="Moon"
         id="layer1"
         transform="translate(114.03871,49.700588)"><path
           id="path3"
           style="fill:url(#linearGradient5);fill-opacity:1;fill-rule:nonzero;stroke:none;stroke-width:8.90333;stroke-linecap:round;stroke-linejoin:round"
           d="m 2048,978.3125 a 1134.356,1142.0662 0 0 0 -138.4512,9.9707 1579.2944,1590.0289 0 0 1 476.9824,1138.1387 A 1579.2944,1590.0289 0 0 1 1916.0879,3252.9453 1134.356,1142.0662 0 0 0 2048,3262.4434 1134.356,1142.0662 0 0 0 3182.3555,2120.3789 1134.356,1142.0662 0 0 0 2048,978.3125 Z"
           inkscape:label="moon" /></g></g></g></svg>
